# xmcd CD database file
#
# Track frame offsets:
#	182
#	18225
#	30752
#	46010
#	61692
#	75132
#	92800
#	103282
#	115750
#	130550
#	146852
#
# Disc length: 2057 seconds
#
# Revision: 2
# Processed by: cddbd v1.5.2PL0 Copyright (c) Steve Scherf et al.
# Submitted via: CDex 1.72
#
DISCID=7708070b
DTITLE=Rainville, Morris P [CDN-93-Missaissauga Man-cty) - The Mississauga Man
DYEAR=1993
DGENRE=Country
TTITLE0=The Mississauga Man
TTITLE1=Waiting Too Long
TTITLE2=Tell Me Where You've Been
TTITLE3=Dealers In Heartaches
TTITLE4=You Have To Go Back
TTITLE5=Would'a Been Here Much Sonner
TTITLE6=His Own Free Will
TTITLE7=Good Old Country Blues
TTITLE8=Born In The Country
TTITLE9=Always Hum A Song In Your SOul
TTITLE10=Ending The Mississauge Man
EXTD=YEAR: 1993
EXTT0=
EXTT1=
EXTT2=
EXTT3=
EXTT4=
EXTT5=
EXTT6=
EXTT7=
EXTT8=
EXTT9=
EXTT10=
PLAYORDER=
